{
  "source": "C:\\Users\\Peter\\Desktop\\stuff\\MIUN\\quantitative_research\\video_compression\\videos\\BVI-HD\\BVI-HD_CDVL_videos\\ORIG\\Diver_1920x1080_30fps.mp4",
  "output": "C:\\Users\\Peter\\Desktop\\stuff\\MIUN\\quantitative_research\\video_compression\\compressed_videos\\BVI-HD\\av1\\4\\Diver_1920x1080_30fps_av1.mkv",
  "codec": "av1",
  "ok": "Input #0, mov,mp4,m4a,3gp,3g2,mj2, from 'C:\\Users\\Peter\\Desktop\\stuff\\MIUN\\quantitative_research\\video_compression\\videos\\BVI-HD\\BVI-HD_CDVL_videos\\ORIG\\Diver_1920x1080_30fps.mp4':\n  Metadata:\n    major_brand     : isom\n    minor_version   : 512\n    compatible_brands: isomiso2avc1mp41\n    encoder         : Lavf54.28.101\n  Duration: 00:00:05.00, start: 0.000000, bitrate: 196798 kb/s\n  Stream #0:0[0x1](und): Video: h264 (High 4:4:4 Predictive) (avc1 / 0x31637661), yuv420p(progressive), 1920x1080, 196794 kb/s, 30 fps, 30 tbr, 30 tbn (default)\n    Metadata:\n      handler_name    : VideoHandler\n      vendor_id       : [0][0][0][0]\n[out#0/matroska @ 0000022352200c00] Codec AVOption b:a (set bitrate (in bits/s)) has not been used for any stream. The most likely reason is either wrong type (e.g. a video option with no video streams) or that it is a private option of some decoder which was not actually used for any stream.\nStream mapping:\n  Stream #0:0 -> #0:0 (h264 (native) -> av1 (libsvtav1))\nPress [q] to stop, [?] for help\nSvt[info]: -------------------------------------------\nSvt[info]: SVT [version]:\tSVT-AV1 Encoder Lib v3.1.0-19-g6ecfe8ec\nSvt[info]: SVT [build]  :\tGCC 15.2.0\t 64 bit\nSvt[info]: LIB Build date: Aug 17 2025 11:37:13\nSvt[info]: -------------------------------------------\nSvt[info]: Level of Parallelism: 5\nSvt[info]: Number of PPCS 93\nSvt[info]: [asm level on system : up to avx2]\nSvt[info]: [asm level selected : up to avx2]\nSvt[info]: -------------------------------------------\nSvt[info]: SVT [config]: main profile\ttier (auto)\tlevel (auto)\nSvt[info]: SVT [config]: width / height / fps numerator / fps denominator \t\t: 1920 / 1080 / 30 / 1\nSvt[info]: SVT [config]: bit-depth / color format \t\t\t\t\t: 8 / YUV420\nSvt[info]: SVT [config]: preset / tune / pred struct \t\t\t\t\t: 4 / PSNR / random access\nSvt[info]: SVT [config]: gop size / mini-gop size / key-frame type \t\t\t: 161 / 16 / key frame\nSvt[info]: SVT [config]: BRC mode / target bitrate (kbps)\t\t\t\t: VBR / 4000 \nSvt[info]: SVT [config]: AQ mode / Variance Boost \t\t\t\t\t: 2 / 0\nSvt[info]: SVT [config]: sharpness / luminance-based QP bias \t\t\t\t: 0 / 0\nSvt[info]: SVT [config]: QP scale compress strength \t\t\t\t\t: 0\nSvt[info]: -------------------------------------------\nOutput #0, matroska, to 'C:\\Users\\Peter\\Desktop\\stuff\\MIUN\\quantitative_research\\video_compression\\compressed_videos\\BVI-HD\\av1\\4\\Diver_1920x1080_30fps_av1.mkv':\n  Metadata:\n    major_brand     : isom\n    minor_version   : 512\n    compatible_brands: isomiso2avc1mp41\n    encoder         : Lavf62.3.100\n  Stream #0:0(und): Video: av1 (AV01 / 0x31305641), yuv420p(tv, progressive), 1920x1080, q=2-31, 4000 kb/s, 30 fps, 1k tbn (default)\n    Metadata:\n      encoder         : Lavc62.11.100 libsvtav1\n      handler_name    : VideoHandler\n      vendor_id       : [0][0][0][0]\n    Side data:\n      cpb: bitrate max/min/avg: 0/0/4000000 buffer size: 4000000 vbv_delay: N/A\nframe=    0 fps=0.0 q=0.0 size=       0KiB time=N/A bitrate=N/A speed=N/A elapsed=0:00:01.08    \nframe=    0 fps=0.0 q=0.0 size=       0KiB time=N/A bitrate=N/A speed=N/A elapsed=0:00:01.65    \nframe=    0 fps=0.0 q=0.0 size=       0KiB time=N/A bitrate=N/A speed=N/A elapsed=0:00:02.25    \nframe=    0 fps=0.0 q=0.0 size=       0KiB time=N/A bitrate=N/A speed=N/A elapsed=0:00:02.84    \nframe=    1 fps=0.3 q=5.0 size=       1KiB time=00:00:00.00 bitrate=N/A speed=   0x elapsed=0:00:03.37    \nframe=    1 fps=0.3 q=5.0 size=       1KiB time=00:00:00.00 bitrate=N/A speed=   0x elapsed=0:00:03.89    \nframe=    1 fps=0.2 q=5.0 size=       1KiB time=00:00:00.00 bitrate=N/A speed=   0x elapsed=0:00:04.41    \nframe=    1 fps=0.2 q=5.0 size=       1KiB time=00:00:00.00 bitrate=N/A speed=   0x elapsed=0:00:04.96    \nframe=    3 fps=0.5 q=23.0 size=       1KiB time=00:00:00.06 bitrate=  85.6kbits/s speed=0.0121x elapsed=0:00:05.49    \nframe=    4 fps=0.7 q=26.0 size=       1KiB time=00:00:00.10 bitrate=  57.0kbits/s speed=0.0166x elapsed=0:00:06.02    \nframe=    6 fps=0.9 q=23.0 size=       1KiB time=00:00:00.16 bitrate=  34.2kbits/s speed=0.0255x elapsed=0:00:06.53    \nframe=    7 fps=1.0 q=21.0 size=       1KiB time=00:00:00.20 bitrate=  28.5kbits/s speed=0.0283x elapsed=0:00:07.06    \nframe=   10 fps=1.3 q=20.0 size=       1KiB time=00:00:00.30 bitrate=  19.0kbits/s speed=0.0394x elapsed=0:00:07.60    \nframe=   11 fps=1.4 q=20.0 size=       1KiB time=00:00:00.33 bitrate=  17.1kbits/s speed=0.0409x elapsed=0:00:08.14    \nframe=   13 fps=1.5 q=17.0 size=       1KiB time=00:00:00.40 bitrate=  14.3kbits/s speed=0.0461x elapsed=0:00:08.66    \nframe=   16 fps=1.7 q=17.0 size=       1KiB time=00:00:00.50 bitrate=  11.4kbits/s speed=0.0543x elapsed=0:00:09.20    \nframe=   17 fps=1.7 q=9.0 size=       1KiB time=00:00:00.53 bitrate=  10.7kbits/s speed=0.0545x elapsed=0:00:09.78    \nframe=   18 fps=1.7 q=17.0 size=       1KiB time=00:00:00.56 bitrate=  10.1kbits/s speed=0.0549x elapsed=0:00:10.31    \nframe=   19 fps=1.7 q=18.0 size=       1KiB time=00:00:00.60 bitrate=   9.5kbits/s speed=0.0552x elapsed=0:00:10.86    \nframe=   20 fps=1.8 q=17.0 size=       1KiB time=00:00:00.63 bitrate=   9.0kbits/s speed=0.0556x elapsed=0:00:11.39    \nframe=   21 fps=1.8 q=19.0 size=       1KiB time=00:00:00.66 bitrate=   8.6kbits/s speed=0.056x elapsed=0:00:11.90    \nframe=   22 fps=1.8 q=16.0 size=       1KiB time=00:00:00.70 bitrate=   8.1kbits/s speed=0.0562x elapsed=0:00:12.45    \nframe=   23 fps=1.8 q=17.0 size=       1KiB time=00:00:00.73 bitrate=   7.8kbits/s speed=0.0563x elapsed=0:00:13.02    \nframe=   25 fps=1.8 q=15.0 size=       1KiB time=00:00:00.80 bitrate=   7.1kbits/s speed=0.0587x elapsed=0:00:13.61    \nframe=   26 fps=1.8 q=15.0 size=       1KiB time=00:00:00.83 bitrate=   6.8kbits/s speed=0.0588x elapsed=0:00:14.16    \nframe=   27 fps=1.8 q=17.0 size=       1KiB time=00:00:00.86 bitrate=   6.6kbits/s speed=0.0588x elapsed=0:00:14.73    \nframe=   28 fps=1.8 q=13.0 size=       1KiB time=00:00:00.90 bitrate=   6.3kbits/s speed=0.0588x elapsed=0:00:15.30    \nframe=   32 fps=2.0 q=16.0 size=       1KiB time=00:00:01.03 bitrate=   5.5kbits/s speed=0.0652x elapsed=0:00:15.84    \nframe=   33 fps=2.0 q=7.0 size=       1KiB time=00:00:01.06 bitrate=   5.3kbits/s speed=0.0651x elapsed=0:00:16.38    \nframe=   35 fps=2.1 q=17.0 size=       1KiB time=00:00:01.13 bitrate=   5.0kbits/s speed=0.0669x elapsed=0:00:16.93    \nframe=   36 fps=2.1 q=16.0 size=       1KiB time=00:00:01.16 bitrate=   4.9kbits/s speed=0.0669x elapsed=0:00:17.44    \nframe=   38 fps=2.1 q=16.0 size=       1KiB time=00:00:01.23 bitrate=   4.6kbits/s speed=0.0686x elapsed=0:00:17.96    \nframe=   39 fps=2.1 q=17.0 size=       1KiB time=00:00:01.26 bitrate=   4.5kbits/s speed=0.0684x elapsed=0:00:18.50    \nframe=   42 fps=2.2 q=16.0 size=       1KiB time=00:00:01.36 bitrate=   4.2kbits/s speed=0.0716x elapsed=0:00:19.07    \nframe=   44 fps=2.2 q=16.0 size=       1KiB time=00:00:01.43 bitrate=   4.0kbits/s speed=0.0731x elapsed=0:00:19.62    \nframe=   48 fps=2.4 q=18.0 size=       1KiB time=00:00:01.56 bitrate=   3.6kbits/s speed=0.0777x elapsed=0:00:20.16    \nframe=   50 fps=2.4 q=18.0 size=       1KiB time=00:00:01.63 bitrate=   3.5kbits/s speed=0.079x elapsed=0:00:20.68    \nframe=   52 fps=2.5 q=19.0 size=       1KiB time=00:00:01.70 bitrate=   3.4kbits/s speed=0.0801x elapsed=0:00:21.21    \nframe=   57 fps=2.6 q=8.0 size=       1KiB time=00:00:01.86 bitrate=   3.1kbits/s speed=0.0859x elapsed=0:00:21.74    \nframe=   57 fps=2.6 q=8.0 size=       1KiB time=00:00:01.86 bitrate=   3.1kbits/s speed=0.0838x elapsed=0:00:22.28    \nframe=   59 fps=2.6 q=22.0 size=       1KiB time=00:00:01.93 bitrate=   3.0kbits/s speed=0.0847x elapsed=0:00:22.82    \nframe=   61 fps=2.6 q=18.0 size=       1KiB time=00:00:02.00 bitrate=   2.9kbits/s speed=0.0856x elapsed=0:00:23.36    \nframe=   65 fps=2.7 q=1.0 size=       1KiB time=00:00:02.13 bitrate=   2.7kbits/s speed=0.0893x elapsed=0:00:23.87    \nframe=   69 fps=2.8 q=21.0 size=       1KiB time=00:00:02.26 bitrate=   2.5kbits/s speed=0.0929x elapsed=0:00:24.39    \nframe=   71 fps=2.9 q=22.0 size=       1KiB time=00:00:02.33 bitrate=   2.4kbits/s speed=0.0937x elapsed=0:00:24.91    \nframe=   73 fps=2.9 q=8.0 size=       1KiB time=00:00:02.40 bitrate=   2.4kbits/s speed=0.0944x elapsed=0:00:25.42    \nframe=   75 fps=2.9 q=23.0 size=       1KiB time=00:00:02.46 bitrate=   2.3kbits/s speed=0.095x elapsed=0:00:25.95    \nframe=   79 fps=3.0 q=23.0 size=       1KiB time=00:00:02.60 bitrate=   2.2kbits/s speed=0.0982x elapsed=0:00:26.47    \nframe=   81 fps=3.0 q=2.0 size=       1KiB time=00:00:02.66 bitrate=   2.1kbits/s speed=0.0987x elapsed=0:00:27.01    \nframe=   85 fps=3.1 q=22.0 size=       1KiB time=00:00:02.80 bitrate=   2.0kbits/s speed=0.102x elapsed=0:00:27.51    \nframe=   89 fps=3.2 q=10.0 size=       1KiB time=00:00:02.93 bitrate=   1.9kbits/s speed=0.105x elapsed=0:00:28.04    \nframe=   89 fps=3.1 q=10.0 size=       1KiB time=00:00:02.93 bitrate=   1.9kbits/s speed=0.103x elapsed=0:00:28.54    \nframe=   93 fps=3.2 q=22.0 size=       1KiB time=00:00:03.06 bitrate=   1.9kbits/s speed=0.105x elapsed=0:00:29.08    \nframe=   97 fps=3.3 q=2.0 size=       1KiB time=00:00:03.20 bitrate=   1.8kbits/s speed=0.108x elapsed=0:00:29.60    \nframe=   97 fps=3.2 q=2.0 size=       1KiB time=00:00:03.20 bitrate=   1.8kbits/s speed=0.106x elapsed=0:00:30.11    \nframe=  101 fps=3.3 q=19.0 size=       1KiB time=00:00:03.33 bitrate=   1.7kbits/s speed=0.109x elapsed=0:00:30.63    \nframe=  105 fps=3.4 q=15.0 size=       1KiB time=00:00:03.46 bitrate=   1.6kbits/s speed=0.111x elapsed=0:00:31.15    \nframe=  105 fps=3.3 q=15.0 size=       1KiB time=00:00:03.46 bitrate=   1.6kbits/s speed=0.109x elapsed=0:00:31.67    \nframe=  109 fps=3.4 q=20.0 size=       1KiB time=00:00:03.53 bitrate=   1.6kbits/s speed=0.11x elapsed=0:00:32.19    \nframe=  109 fps=3.3 q=20.0 size=       1KiB time=00:00:03.60 bitrate=   1.6kbits/s speed=0.11x elapsed=0:00:32.72    \nframe=  113 fps=3.4 q=9.0 size=       1KiB time=00:00:03.73 bitrate=   1.5kbits/s speed=0.112x elapsed=0:00:33.25    \nframe=  117 fps=3.5 q=19.0 size=       1KiB time=00:00:03.86 bitrate=   1.5kbits/s speed=0.114x elapsed=0:00:33.77    \nframe=  119 fps=3.5 q=21.0 size=       1KiB time=00:00:03.93 bitrate=   1.5kbits/s speed=0.115x elapsed=0:00:34.28    \nframe=  121 fps=3.5 q=14.0 size=       1KiB time=00:00:04.00 bitrate=   1.4kbits/s speed=0.115x elapsed=0:00:34.80    \nframe=  123 fps=3.5 q=23.0 size=       1KiB time=00:00:04.06 bitrate=   1.4kbits/s speed=0.115x elapsed=0:00:35.32    \nframe=  127 fps=3.5 q=26.0 size=       1KiB time=00:00:04.20 bitrate=   1.4kbits/s speed=0.117x elapsed=0:00:35.85    \nframe=  131 fps=3.6 q=25.0 size=       1KiB time=00:00:04.33 bitrate=   1.3kbits/s speed=0.119x elapsed=0:00:36.38    \nframe=  133 fps=3.6 q=26.0 size=       1KiB time=00:00:04.40 bitrate=   1.3kbits/s speed=0.119x elapsed=0:00:36.90    \nframe=  137 fps=3.7 q=18.0 size=       1KiB time=00:00:04.53 bitrate=   1.3kbits/s speed=0.121x elapsed=0:00:37.42    \nframe=  139 fps=3.7 q=25.0 size=       1KiB time=00:00:04.60 bitrate=   1.2kbits/s speed=0.121x elapsed=0:00:37.94    \nframe=  141 fps=3.7 q=26.0 size=       1KiB time=00:00:04.66 bitrate=   1.2kbits/s speed=0.121x elapsed=0:00:38.45    \n[out#0/matroska @ 0000022352200c00] video:2172KiB audio:0KiB subtitle:0KiB other streams:0KiB global headers:0KiB muxing overhead: 0.065997%\nframe=  150 fps=3.9 q=29.0 Lsize=    2174KiB time=00:00:04.96 bitrate=3585.2kbits/s speed=0.128x elapsed=0:00:38.70    \n",
  "seconds": 39.15176248550415,
  "probe_out": {}
}